<svg xmlns:xlink="http://www.w3.org/1999/xlink" xmlns="http://www.w3.org/2000/svg" width="1202" height="782" fill="none" viewBox="0 0 1202 782"><script xmlns=""/>
  <path fill="#E6E4E0" d="M1 1.8h1200V781H1V1.8z"/>
  <path fill="#C0E3A5" d="M968.8 561.3l-7.8-7.8 21.8-25.7.8-22.6-2.3-5.5-7-12.5-18.7-15.5-25.8-19.5-17.9-7h-6.2l-6.3 3-24.1 23.5-65.5-57a30.4 30.4 0 0 1 15.6-12.4 342.9 342.9 0 0 0 52.2-25.7 160.5 160.5 0 0 0 25.7-29.6 124.7 124.7 0 0 1 27.3-27.3 93.5 93.5 0 0 1 27.3-3.1 34.3 34.3 0 0 0 17.9-7 44.4 44.4 0 0 0 11.7-18.7c.8-4.7.8-9.4 0-14 0-6.3-9.4-43.7-10.1-48.4-.5-4.9.6-9.8 3-14a12.5 12.5 0 0 1 10.2-5.5l64.7-2.3a44.5 44.5 0 0 0 17.1-7c4.6-3.2 8-7.9 9.4-13.2.8-4 13.2-51.5 17.1-57 4-5.4 14.8-21 26.5-24.9a66 66 0 0 1 27.3 0l48.3 6.3v241.5l-21.8 21-13.3 3.2-13.2 6.2-8.6 11.7-7.8 21.8-53 58.5-80.2 88-11.7 1.6-22.6-3.2zM1 1.8h303.9L252.7 64l-49.9 60 28.8 26.5v3.1l-10 13.3-8.7-7.8-4.6-.8-6.3 3.1-99 93.5L1 368V1.8zm473.8 0h53.7L545 11.9l21 46.8 9.4 7.8-11 14-89.5-78.7zm104.4 46.7L560.5 8l-4.7-6.2h78.7l-47.5 53-7.8-6.3z"/>
  <path fill="#8ACEEC" d="M824.6 407l53.8-22.6L915 343l18-19.5 11.6-3.1h21L979 315l12.5-17.9 3.1-15.6-4.7-19.4-6.2-28.9v-15.6l4.7-3.9 15.6-3 32.7-1.6 21.8 1.5 12.5-4.6 13.2-11.7 7.8-25 11-36.6 12.4-15.6 12.5-8.6 15.5-.7 23.4 3 34.3 4V1.8h-109l-10.2 19.5-35 32-52.3 37.3-50.6 39L918 153l-14 19.4-21 45.2-18.7 42.9-31.2 67-18.7 43.6-2.3 21L816 404l3.9 3.9 4.6-.8z"/>
  <path fill="#fff" stroke="#D6D9E5" stroke-width=".2" d="M102.3 781l92-96.6 84.1-87.3 98.2-103.6 26.5-31.2 41.3-63.1 14-17.2 37.4-39 88-91 48.4-54.6 88-103.7 49.1-54.5 31.2-37.4h10.9l-71 82.6-50.6 58.4-28.8 33.5.8 2.4 25 5.4-3.2 9.4-27.3-9.4h-3l-46.8 55.4-44.5 46.7-70 73.3-32.8 35-45.2 66.3-18 23.3-36.5 39L223 665.7l-78.7 81.8-31.2 32.7-10.9.8zm931.2-300a67.9 67.9 0 0 1-27.3-17.1 78.8 78.8 0 0 1-11.7-31.2 44.4 44.4 0 0 0-3.9-18.7 920.6 920.6 0 0 0-26.5-25.7l-3.9-4-7-22.5-5.4-14.8c-4 3.6-7.5 7.6-11 11.7 0 0-39 36.6-44.4 40.5-5.4 3.9-24.1 12.4-24.1 12.4-8.8 3.9-18 6.7-27.3 8.6l-15.6 17.2-5.4-4.7 10.9-14a28.8 28.8 0 0 1-20.3-17.2c-6.2-14 4-41.3 5.5-45.2l10.1-24.1 34.3-71.7s36.6-85.7 49-102.1a269 269 0 0 1 39-39l62.4-46s55.3-41.2 61.5-48.2a153 153 0 0 0 13.3-23.4h10.1a75.8 75.8 0 0 1-14 28 228.5 228.5 0 0 1-28.8 25.8L968.8 114l-39 33.5a143.4 143.4 0 0 0-23.4 32l-13.2 28.8-36.6 77.9 15.6 5.5a61.6 61.6 0 0 0 15.5 1.5c7.8-.8 13.3-5.5 21-6.2a75.6 75.6 0 0 1 24.2 7.8s7.8 3 7.8 4.6l4.7 14 4.7 21.1a63.2 63.2 0 0 1 7-1.6l23.4-5.4a244.1 244.1 0 0 0 23.4-14.8c6.6-6.8 12.3-14.4 17-22.6a25.7 25.7 0 0 0 1.7-12.5 133.8 133.8 0 0 0-4.7-18.7s-7-31.2-3.1-37.4a12.4 12.4 0 0 1 12.4-5.4h26.5a80.3 80.3 0 0 0 34.3-12.5 99.6 99.6 0 0 0 28.8-28 217.5 217.5 0 0 0 5.5-35.1c0-4.7 5.4-19.5 18-22.6a69.3 69.3 0 0 1 28 .8c4.6 0 32.7 7.8 32.7 7.8v9.3l-33.5-7.8s-21.8-3.1-27.3 0c-5.4 3.1-6.2 7.8-9.3 15.6-3.2 6.2-2.4 23.4-6.3 32.7l4.7 7.8c9 11.7 17.3 24 25 36.6a119.3 119.3 0 0 1 7 33.5c.5 8.3.5 16.7 0 25a129.2 129.2 0 0 1-4 20.2l-7.7 17.2 31.1-24.2a74.7 74.7 0 0 1 14.8-7.8c1.8-.6 3.6-1.1 5.5-1.5v10.1a32 32 0 0 0-4.7 0 67.2 67.2 0 0 0-11.7 7.8 498.9 498.9 0 0 1-42.8 31.2L1137 343l-18.7 35.8a156.7 156.7 0 0 0-12.5 28.8l-6.2 27.3a110.6 110.6 0 0 1-14.8 29.6 48.3 48.3 0 0 1-31.2 19.5h-4.7a57.6 57.6 0 0 1-15.5-3.1v0zm-50.7-144.2c-9.3 2.4-22.6 4.7-28.8 7 1.5 5.1 3.3 10 5.4 14.9 2.4 3 4.7 18.7 7.8 21.8l17.2 17.9s13.2 11.7 14.8 14.8a70.3 70.3 0 0 1 3.1 15.6s2.3 23.4 10.1 31.2a47.5 47.5 0 0 0 19.5 11.7 49.9 49.9 0 0 0 17.2 3 39 39 0 0 0 34.3-24.9c6.3-13 11-27 14-41.3l7.8-24.1 21.8-40.5a235.2 235.2 0 0 1-60 25.7 109 109 0 0 1-46 .8 46.8 46.8 0 0 1-26.5-18 76.4 76.4 0 0 1-7.8-17.1 84.5 84.5 0 0 1-4.7 1.5h.8zm-160.5 23.4a120.8 120.8 0 0 0-6.2 30.4 37.4 37.4 0 0 0 7.8 18 25.7 25.7 0 0 0 16.3 4.6 205 205 0 0 0 28.8-10.9 176.9 176.9 0 0 0 18-9.3l39-35.9 18.6-18v-1.5l-5.4-23.4c0-2.3-.8-9.3-5.5-12.4a99.7 99.7 0 0 0-20.2-6.3c-2.6-.3-5.2-.3-7.8 0a121.5 121.5 0 0 1-17.2 4.7c-7.8.8-15.7.2-23.3-1.5l-11.7-5.5-31.2 67zM1024.9 227c-4.7 3-3.1 7.8-2.3 11.7l6.2 23.3a75.6 75.6 0 0 1 2.3 25.8 45 45 0 0 1-4.7 12.4c-5 7.8-11 14.9-17.9 21a94.8 94.8 0 0 1-15.6 11 46 46 0 0 0 7.8 14 39 39 0 0 0 23.4 15.6 109.8 109.8 0 0 0 42-.8 287.6 287.6 0 0 0 59.3-25.7l10.1-7.8 14-29.6a130.2 130.2 0 0 0 4-36.6 118.3 118.3 0 0 0-7-35.9 330.9 330.9 0 0 0-26.6-40.5 91.2 91.2 0 0 1-24.9 25 88 88 0 0 1-41.3 15.5c-4.4.3-8.8.3-13.2 0h-7.8c-2.7-.2-5.4.3-7.8 1.6v0zM1 329v-9.3l4.7-4.7 9.3-11.7c1.3-4.6 2.4-9.3 3.1-14a21.8 21.8 0 0 0-6.2-12.5A49.9 49.9 0 0 0 1.8 269V238l1.5 4.7 2.4 21 9.3 7.8 3.1-.8 16.4-17.1 1.6-7v-33.6l-1.6-14L1 208.3v-9.4l33.5-7.8 2.3-5.4 1.6-18-1.6-11.6-9.3-21L1 138.8v-7.8l26.5-4.6v-1.6l.8-39L29 82v-.7c.6-4 1.7-8 3.2-11.7A198 198 0 0 0 45.4 50a80.3 80.3 0 0 0 6.2-20.3l1.6-4.6a198.7 198.7 0 0 0 2.3-23.4V1h7.8l-.7 15.6-7.8 31.1a50.6 50.6 0 0 1-7.8 14L73.5 65c5.4 1.6 43.6 10.9 52.2 11.7 7.8.5 15.6.5 23.3 0V29.8l1.6-2.3 14-14V11L156.8 1h11c.7 3.5 2.3 6.7 4.6 9.3a30.4 30.4 0 0 0 10.2 4 104.5 104.5 0 0 0 17.9 3.8h1.5c1.4-.3 2.7-.8 4-1.5L220.6 1h15.6l-13.2 10.9a197.9 197.9 0 0 1-15.6 15.6 3.9 3.9 0 0 1-2.3 0c-1.4-.1-2.7-.4-4-.8l-31.1-7-12.5 12.5v45.2h12.5a64.7 64.7 0 0 0 18-9.4h1.5l13.2-7.8c5.5-4.7 10.7-9.6 15.6-14.8v-.8l37.4-39-6.2-4.6h10.9l45.2 37.4-4.7 7-40.5-34.3-3.1 3.2-21 23.3-28.1 29.6a117 117 0 0 1-15.6 7l32.7 28.1-4.7 6.2-5.4-4.6-.8.7-.8.8-1.5 1.6-2.4 3-17.1 21.1a5.4 5.4 0 0 1-4 1.6l-14.7.8-67.8 57.6-14 10.2-46.8 27.2-3.1 29.6-21.8 19.5a54.5 54.5 0 0 1 6.2 14 78.7 78.7 0 0 1-9.4 23.4 203.6 203.6 0 0 1-15.5 14v0H1zM37.6 78.3l-2.3 15.5v39a65.5 65.5 0 0 1 12.5 33.5 120 120 0 0 1-6.3 35.8l2.4 15.6 2.3 2.4 12.5-7 25-14.9 27.2-21.8 28.8-23.4 33.5-28 9.4-12.5 1.5-15.6V78.1l-9.3 5.5-13.3 2.3h-25a231 231 0 0 1-23.3-3.9L65.7 71.1l-23.4-2.3-4.7 9.3zM192 108.5l-1.6 4.7-10.9 12.5 4.7.8 4-1.6 21.7-25-18.7-16.3.8 25z"/>
  <path fill="#EDEDD2" d="M1 1.8V61l20.3 11L50 29 54 1.8H1z"/>
  <path fill="#fff" stroke="#D6D9E5" stroke-linejoin="round" stroke-width=".3" d="M82.8 781H1v-32.7l106-124.7-4-10.1a185.6 185.6 0 0 0-21.7-18L1 533.2V520l106 81.8 20.2 1.6 76.4-87.3-2.3-5.5-92.8-87.3-17.1 3.2-21.8-15.6-2.4-27.3 16.4-20.3h28l18 16.4v21.8l99.7 83.4 33.5-39-.8-42.8 26.5-41.3-29.6-24.2-37.4-33.5-35-31.1-36.7-43.7-43.6-37.4 7-6.2L156 223l35.8 42 29.6 25.8 76.4 66.2 30.4 14 111.4-127-20.3-17.1-10.9 7.8-3 .7-1.6 1.6a50.7 50.7 0 0 0-10.2 11v0h-.7a189.4 189.4 0 0 1-14 17l-13.3 6.3h-.8l-3.1.8-4-.8c-1.5-1.6 0-6.3.9-7.8h.7c6.2-3.6 12.2-7.5 18-11.7l4.6-5.5V245h.8v-.8h.8v-1.6l1.6-.7c2-4 4.6-7.7 7.8-11a128 128 0 0 1 18.7-10h.7l-10.9-11-14 7.8-29.6 3.9-31.2-25L319 160l21-30.3 34.4-11.7a155.9 155.9 0 0 1 27.2 9.3 179.4 179.4 0 0 1 15.6 17.2l4.7 36.6-1.6 7.8-4.7 7.8 11.7 9.3 31.2-46.7a350.5 350.5 0 0 1 21.8-29.6l42.1-46.8 6.2-5.5-88-75.5H456l113.7 100.5 23.4-25L571.4 58l-15.6-31.2-7-15.6-13.2-9.3h14.8l7 7.8 19.4 42 22.6 19.5L661.8 1h107.5L593.2 204.4v20.2l28.8 32 41.3 39 28.9-34.4-21-17.9a15.6 15.6 0 0 1-3.2-8.5 87.3 87.3 0 0 1 4-18.7l25.6-71a64.7 64.7 0 0 1 10.1-14 21.8 21.8 0 0 1 11-3.9h28.8l10.1-19.5 17.2-27.2 32.7-39L841.8 1h17.9l-52.2 58.4-23.4 28.9-23.4 35-16.3 35.9-14 38.2-11 28.8v.8a.8.8 0 0 0-.7.7.8.8 0 0 0 .7.8h-.7v.8a236.1 236.1 0 0 1-14.8 29.6L671 300.2h-.8l-.7 1.6L714 343l35.8 11.7 35.1 19.5 7.8 21 2.3 12.5 78 70 28.8-28.7a15.6 15.6 0 0 1 7.8-2.4h2.3v0c3.1.8 17.2 11.7 39 30.4l24.9 23.4a20.3 20.3 0 0 1 3.9 15.6 25.7 25.7 0 0 1-7.8 15.6l-17.1 21 10.1 9.3a35 35 0 0 0 18.7 4.7h2.3c7.5.7 15-.4 21.9-3 2.3-.9 46.7-50 131.7-145l1.5-2.4a49 49 0 0 1 11-26.4c7.7-7.8 29.5-13.3 31-14l17.2-15.7v101.3h-7.8l-77.9 81 85.7 87.4v25.7l-54.5 56v18l54.5 52.2h-15.6L1134 735l1.6-17.2-57 63.9h-13.2l48.3-53-26.5-7.8-43.6-39-67 84.2-7.8 9.4c-.8.2-1.6.2-2.3 0a5.5 5.5 0 0 1-4-1.6 3.9 3.9 0 0 1-.7-3.9 7.8 7.8 0 0 1 .8-3.9l4.6-5.4 70.2-85.7-25.7-23.4-18.8 21-70 78a7.8 7.8 0 0 0-4 6.2 92 92 0 0 0 7.8 24.1H774l-48.3-42-152-135.6a71.7 71.7 0 0 1-21.8 0 18.7 18.7 0 0 1-7.8-4.7L527 583.9 472.4 643l-127 138.7h-21.8l27.3-31.2 1.5-3.9h-4.6L318 781.8h-25.7l28.9-31.2a23.4 23.4 0 0 0 3-10.9 43.6 43.6 0 0 0-7.7-20.2v0l-49.1-42.9a6.3 6.3 0 0 0-4.7 0 21.9 21.9 0 0 0-3.1 0 27.3 27.3 0 0 0-13.2 7L156.8 781h-23.3l105.2-116.9 11.7-2.3-37.4-31.2-2.4 3.1-127.8 148v-.7zm794.8-7.8L891 781l-4-20.3-9.3 12.5zM548.8 534.8l257.1 227.5v-6.2L672.7 638.4 518.4 501.3l-56.9-42.1 87.3 75.6zm304.7 217.4l16.3-21.8a60.8 60.8 0 0 1-7.8 3 54.6 54.6 0 0 1-21 4.7h-3.9l16.4 14zM527 463l32.7 28.8L774 681.3l51.4 46 5.5 1.5c5.4.8 11 .8 16.3 0a109 109 0 0 0 30.4-17.1l33.5-34.3 7.8-11 40.5-45.1c1.6-7.7 1.8-15.6.8-23.4a67.8 67.8 0 0 0-5.4-21.8l-70.2-64.7-26.5 29.6 4.7 3.9v7c-1 .4-2 .4-3 0a9.4 9.4 0 0 1-3.2 0l-4-3.9-33.4 40.5a45.2 45.2 0 0 1-12.5 4.7v0a1.6 1.6 0 0 1-1.5 0c-3.2-.1-6.3-.6-9.4-1.5l-81-69.4c-.8 0-3.1-3.1-3.1-4.7 0-1.7.5-3.3 1.5-4.6l10.2-11.7 35.8-43.7 27.3-31.1-33.5-29.6-143.4-125.5-33.5-27.3h-16.4l-10.9 13.3-105.2 112.2 13.2 23.3 31.2 37.5 23.4 21.8L527 463zm-9.4 97.4L372 724l148.9-159 7.8-1.5-9.4-10.1-1.6 7zM346.2 721l5.5-4.7-9.4-7.8-12.5-2.3 16.4 14.8zm716.9-124.7l-43.6 47.6 73.2 67 29.6 7.8 78-78L1109 548l-46 48.3zM248 638.4l70.1 60 3.2-7.8-67-58.4-6.3 6.2zm116.9-179.2L241.8 598.7l109 92.7h23.4L481 574.5l16.4-18.7-79.5-70.1s-4.7-7.8-2.3-10.2a2.3 2.3 0 0 1 2.3 0c2 0 3.8.6 5.4 1.6l79.5 71.7 4-4.7-116.2-106.7h-6.2l-19.5 21.8zM223.1 617.4l20.2 16.3 5.5-5.4-19.5-18-6.2 7zm754.3-17.2l15.6-14-18.7-3.9 3 18zm-441-21.8a211.9 211.9 0 0 0 21.7 16.4c2.2-.3 4.3-.8 6.3-1.6l-17.2-15.6a11.7 11.7 0 0 0-5.4-1.5v0a20 20 0 0 0-5.5 2.3v0zm187-62.3l74 63.9a10.1 10.1 0 0 0 6.2 2.3h.8c2.6.1 5.2-.1 7.8-.8v0l9.3-11.7-81-73.2-17.2 19.5zm24.9-28.9l80.2 74 15.6-18.6-81.8-71.7-14 16.3zm130.1-3l70.1 64.6 4.7-4.7-71.7-63.9-3 4zm25.7-23.5l-14 14.8 67 61.6 13.3-17.1c.9-2.5 1.1-5.2.7-7.8a18.7 18.7 0 0 0-3-7v0L915.7 460a15.6 15.6 0 0 0-5.4-1.6 8.6 8.6 0 0 0-6.3 3.1v-.8zm-134.8 1.6l81 72.5 25.8-30.4-9.4-7.8-72.4-64-25 29.7zm-553.2 39l2.3-3.2-59.2-52.2 56.9 55.4zm56-94.3l1.6 26.5 48.3-54.6-23.3-11.7-26.5 39.8zM425 389.8h-.8l5.5 2.4 21.8 14.8 22.6 19.4-21.8-24.9-8.6-14-7-11-11.7 13.3zm752.7 28.9a7.8 7.8 0 0 0 4.8 7.2 7.8 7.8 0 0 0 10.7-5.7 7.8 7.8 0 1 0-15.5-1.5zM84.4 395.3a14.8 14.8 0 1 0 .8-5 14.8 14.8 0 0 0-.8 5.8v-.8zm701.3 7.8s-5.5-18.7-11-22.6L731.2 357l54.6 46zM680.5 227.8a10.9 10.9 0 0 0-1.6 6.2 107.5 107.5 0 0 0 17.2 15.6l15.6-32.7 4.6-11-23.3-9.3-12.5 31.2zm-253.3-5.5L446 238l2.4-3.1-4-3.1-.7-.8v0-.8a.8.8 0 0 0-.8 0v0-.8h-.8l-.7-.8-1.6-.7a3.2 3.2 0 0 1 0-.8v0l-2.3-1.6-1.6-1.5-2.3-2.4-2.4-2.3h-3.9v3.1zm78.7-106L470.1 157l-36.6 54.5 20.2 18.7L563.6 107l-27.3-23.4-30.4 32.7zm-98.1 88h-.8l14 13.3 3.1-2.3-14.8-13.3-1.6 2.4zm-62.4-66.1l-15.6 23.3 5.5 31.2 23.4 18 32-4.8 10.8-7.7 7.8-12.5.8-14-4-23.4-10.8-12.5-19.5-7.8-30.4 10.2zm367.8 3a53 53 0 0 0-9.3 19.6l-7.8 28.8 23.3 7.8 11.7-33.5 11-24.2-22.7-.8c-2.2.2-4.4 1-6.2 2.4v0z"/>
<script xmlns=""/></svg>