<?xml version="1.0" encoding="utf-8"?>
<!-- Generator: Adobe Illustrator 26.0.1, SVG Export Plug-In . SVG Version: 6.00 Build 0)  -->
<svg version="1.1" xmlns="http://www.w3.org/2000/svg" xmlns:xlink="http://www.w3.org/1999/xlink" x="0px" y="0px"
	 viewBox="0 0 441.1 533" style="enable-background:new 0 0 441.1 533;" xml:space="preserve">
<style type="text/css">
	.st0{filter:url(#Adobe_OpacityMaskFilter);}
	.st1{fill:#020203;}
	.st2{mask:url(#Transit_00000104674095364105666000000003447564874124061845_);fill:#FFFFFF;}
</style>
<g id="Layer_1">
	<g id="Layer_2_00000147199642559155914690000012029244455021941380_">
		<g id="Layer_3">
		</g>
	</g>
	<g id="Layer_1_00000183939124924061728440000016583718146702324147_">
		<defs>
			<filter id="Adobe_OpacityMaskFilter" filterUnits="userSpaceOnUse" x="2.1" y="1.3" width="436.9" height="530.4">
				<feColorMatrix  type="matrix" values="1 0 0 0 0  0 1 0 0 0  0 0 1 0 0  0 0 0 1 0"/>
			</filter>
		</defs>
		
			<mask maskUnits="userSpaceOnUse" x="2.1" y="1.3" width="436.9" height="530.4" id="Transit_00000104674095364105666000000003447564874124061845_">
			<g class="st0">
				<path class="st1" d="M260.4,381.1l-1.6,1.7c-11.5,12-27.4,18.9-44,18.9l0,0c-16.6,0-32.5-6.8-44-18.9c-4-4.1-10.5-4.2-14.6-0.2
					c-4.1,4-4.2,10.5-0.2,14.6l0,0c15.4,15.9,36.7,24.8,58.8,24.7l0,0c22.1,0.1,43.3-8.8,58.8-24.7l1.7-1.7c4-4.1,3.8-10.6-0.2-14.6
					C270.9,376.9,264.4,377,260.4,381.1L260.4,381.1z"/>
			</g>
		</mask>
		<path id="Transit" class="st2" d="M353.1,531.7c-12.2,0-22.1-9.9-22.1-22.1v-44.2H110v44.2c0,12.2-9.9,22.1-22.1,22.1H65.8
			c-12.2,0-22.1-9.9-22.1-22.1v-44.2l0,0c-24,0-43-20.2-41.5-44.1l19.4-320.6c0-54.9,89.1-99.5,198.9-99.5s198.9,44.5,198.9,99.5
			l19.4,320.6c1.5,23.9-17.6,44.1-41.5,44.1l0,0v44.2c0,12.2-9.9,22.1-22.1,22.1H353.1z M82.4,290.7c-18.3,0-33.1,14.8-33.1,33.2
			S64.1,357,82.4,357s33.1-14.8,33.1-33.2S100.7,290.7,82.4,290.7z M358.7,290.7c-18.3,0-33.2,14.8-33.2,33.2s14.8,33.2,33.2,33.2
			s33.2-14.8,33.2-33.2S377,290.7,358.7,290.7z M132.1,45.5c-6.1,0-11,5-11,11c0,6.1,5,11,11,11h176.8c6.1,0,11-5,11-11
			c0-6.1-5-11-11-11H132.1z M49.2,261h342.6l-16.6-143.7c0-12.2-9.9-22.1-22.1-22.1H87.9c-12.2,0-22.1,9.9-22.1,22.1L49.2,261z"/>
	</g>
</g>
<g id="Layer_2">
</g>
</svg>
