<?xml version="1.0" encoding="utf-8"?>
<!-- Generator: Adobe Illustrator 26.0.1, SVG Export Plug-In . SVG Version: 6.00 Build 0)  -->
<svg version="1.1" id="Layer_1" xmlns="http://www.w3.org/2000/svg" xmlns:xlink="http://www.w3.org/1999/xlink" x="0px" y="0px"
	 viewBox="0 0 1080 1080" style="enable-background:new 0 0 1080 1080;" xml:space="preserve">
<style type="text/css">
	.st0{filter:url(#Adobe_OpacityMaskFilter);}
	.st1{fill:#020203;}
	.st2{mask:url(#Transit_00000096764882736273047870000006717494156936856707_);fill:#010202;}
</style>
<defs>
	<filter id="Adobe_OpacityMaskFilter" filterUnits="userSpaceOnUse" x="323.87" y="248.16" width="436.84" height="530.44">
		<feFlood  style="flood-color:white;flood-opacity:1" result="back"/>
		<feBlend  in="SourceGraphic" in2="back" mode="normal"/>
	</filter>
</defs>
<mask maskUnits="userSpaceOnUse" x="323.87" y="248.16" width="436.84" height="530.44" id="Transit_00000011024808597449141640000007951548881550993574_">
	<g class="st0">
		<path class="st1" d="M582.21,627.98l-1.57,1.65c-11.47,12.04-27.37,18.86-44,18.87l0,0c-16.63-0.02-32.53-6.84-44-18.87
			c-3.96-4.1-10.49-4.21-14.58-0.25c-4.1,3.96-4.21,10.49-0.25,14.58l0,0c15.44,15.9,36.68,24.82,58.83,24.72l0,0
			c22.13,0.09,43.34-8.84,58.75-24.72l1.65-1.65c3.96-4.1,3.85-10.63-0.25-14.58C592.7,623.77,586.17,623.88,582.21,627.98
			L582.21,627.98z"/>
	</g>
</mask>
<path id="Transit" style="mask:url(#Transit_00000011024808597449141640000007951548881550993574_);fill:#010202;" d="M674.9,778.6
	c-12.21,0-22.1-9.9-22.1-22.1v-44.2H431.78v44.2c0,12.21-9.9,22.1-22.1,22.1h-22.1c-12.21,0-22.1-9.9-22.1-22.1v-44.2h0
	c-23.97,0-42.98-20.2-41.53-44.12l19.43-320.56c0-54.93,89.06-99.46,198.92-99.46s198.92,44.53,198.92,99.46l19.43,320.56
	c1.45,23.92-17.56,44.12-41.53,44.12h0v44.2c0,12.21-9.9,22.1-22.1,22.1H674.9z M404.16,537.56c-18.31,0-33.15,14.84-33.15,33.15
	s14.84,33.15,33.15,33.15s33.15-14.84,33.15-33.15S422.47,537.56,404.16,537.56z M680.43,537.56c-18.31,0-33.15,14.84-33.15,33.15
	s14.84,33.15,33.15,33.15c18.31,0,33.15-14.84,33.15-33.15S698.74,537.56,680.43,537.56z M453.88,292.36
	c-6.1,0-11.05,4.95-11.05,11.05c0,6.1,4.95,11.05,11.05,11.05H630.7c6.1,0,11.05-4.95,11.05-11.05c0-6.1-4.95-11.05-11.05-11.05
	H453.88z M371,507.85h342.58L697,364.19c0-12.21-9.9-22.1-22.1-22.1H409.68c-12.21,0-22.1,9.9-22.1,22.1L371,507.85z"/>
</svg>
