<?xml version="1.0" encoding="utf-8"?>
<!-- Generator: Adobe Illustrator 26.0.1, SVG Export Plug-In . SVG Version: 6.00 Build 0)  -->
<svg version="1.1" xmlns="http://www.w3.org/2000/svg" xmlns:xlink="http://www.w3.org/1999/xlink" x="0px" y="0px"
	 viewBox="0 0 915.2 324.8" style="enable-background:new 0 0 915.2 324.8;" xml:space="preserve">
<style type="text/css">
	.st0{filter:url(#Adobe_OpacityMaskFilter);}
	.st1{fill:#020203;}
	.st2{mask:url(#Transit_00000119817406625092960060000009195028731337617317_);fill:#FFFFFF;}
	.st3{fill:#FFFFFF;}
</style>
<g id="Layer_2">
</g>
<g id="Layer_1">
	<g>
		<defs>
			<filter id="Adobe_OpacityMaskFilter" filterUnits="userSpaceOnUse" x="9" y="6.1" width="256.7" height="311.7">
				<feFlood  style="flood-color:white;flood-opacity:1" result="back"/>
				<feBlend  in="SourceGraphic" in2="back" mode="normal"/>
			</filter>
		</defs>
		
			<mask maskUnits="userSpaceOnUse" x="9" y="6.1" width="256.7" height="311.7" id="Transit_00000119817406625092960060000009195028731337617317_">
			<g class="st0">
				<path class="st1" d="M160.8,229.3l-0.9,1c-6.7,7.1-16.1,11.1-25.9,11.1l0,0c-9.8,0-19.1-4-25.9-11.1c-2.3-2.4-6.2-2.5-8.6-0.2
					c-2.4,2.3-2.5,6.2-0.1,8.6l0,0c9.1,9.3,21.6,14.6,34.6,14.5l0,0c13,0,25.5-5.2,34.5-14.5l1-1c2.3-2.4,2.3-6.2-0.1-8.6
					C167,226.8,163.2,226.9,160.8,229.3L160.8,229.3z"/>
			</g>
		</mask>
		<path id="Transit" class="st2" d="M215.3,317.8c-7.2,0-13-5.8-13-13v-26H72.4v26c0,7.2-5.8,13-13,13h-13c-7.2,0-13-5.8-13-13v-26
			l0,0c-14.1,0-25.3-11.9-24.4-25.9L20.5,64.5c0-32.3,52.3-58.5,116.9-58.5s116.9,26.2,116.9,58.5l11.4,188.4
			c0.9,14.1-10.3,25.9-24.4,25.9l0,0v26c0,7.2-5.8,13-13,13L215.3,317.8L215.3,317.8z M56.2,176.2c-10.8,0-19.5,8.7-19.5,19.5
			s8.7,19.5,19.5,19.5s19.5-8.7,19.5-19.5S67,176.2,56.2,176.2z M218.6,176.2c-10.8,0-19.5,8.7-19.5,19.5s8.7,19.5,19.5,19.5
			s19.5-8.7,19.5-19.5S229.3,176.2,218.6,176.2z M85.4,32.1c-3.6,0-6.5,2.9-6.5,6.5c0,3.6,2.9,6.5,6.5,6.5h103.9
			c3.6,0,6.5-2.9,6.5-6.5c0-3.6-2.9-6.5-6.5-6.5H85.4z M36.7,158.7H238l-9.7-84.4c0-7.2-5.8-13-13-13H59.5c-7.2,0-13,5.8-13,13
			L36.7,158.7z"/>
		<g>
			<path class="st3" d="M325.2,112.7c0,11.1-7.8,16.9-17,16.9c-9,0-16.7-5.7-16.7-16.9V40.6h-11.8c-10.6,0-16.9-7.8-16.9-17
				s6.3-17,16.9-17h57c10.6,0,17,7.8,17,17s-6.4,17-17,17h-11.5L325.2,112.7L325.2,112.7z"/>
			<path class="st3" d="M404.2,82.7c-1.2-1.7-2.4-5.2-2.4-9.2c0-10.1,3.8-16,13-16h2.4c5.7,0,9.6-3.1,9.6-10.1
				c0-6.3-3.5-8.5-10.6-8.5H398v72.6c0,11.6-5.6,17.4-16.9,17.4s-17-5.7-17-17V23.6c0-11.3,5.4-17,16.3-17h36.5
				c28.7,0,41.4,18.6,41.4,37.2c0,16.7-9.2,28.7-20.5,33.4l16.2,25.4c2.3,4,3.3,7.5,3.3,10.4c0,9.9-9.2,16.7-18.2,16.7
				c-5.4,0-11-2.6-14.2-8.7L404.2,82.7z"/>
			<path class="st3" d="M540.7,105.2h-36.1l-5.4,13.4c-3.3,7.5-9,11-14.8,11c-9,0-18.2-6.3-18.2-16c0-3,0.3-5.2,1.2-6.8l41.4-90.7
				C511.5,10,515.1,6,524.3,6c8.9,0,12.7,4,15.3,10.2l37.7,90.5c0.9,1.7,1.2,4,1.2,6.8c0,9.2-9,16-18.1,16c-7.5,0-12.3-3.6-15-11
				L540.7,105.2z M515.1,78.7h16.3L524,56.6L515.1,78.7z"/>
			<path class="st3" d="M639,78l24.2-61.2c3-7.5,9-10.8,15.1-10.8c9,0,18.2,6.3,18.2,16c0,3.3-0.3,4.7-1.6,6.8l-40.5,90.7
				c-3,6.1-7,10.1-16,10.1s-12.5-4-15.3-10.2l-37-90.5c-0.9-2.1-1.6-4.2-1.6-6.8c0-9.2,9.2-16,18.2-16c6.1,0,12.3,3.3,15,10.8
				L639,78z"/>
			<path class="st3" d="M722.4,128.9c-11.1,0-16.7-5.7-16.7-17V23.6c0-11.3,5.6-17,16.7-17h57.3c10.6,0,16.9,7.8,16.9,17
				s-6.3,17-16.9,17h-40.5v11.6H773c9.7,0,15.5,7.1,15.5,15.5s-5.7,15.5-15.5,15.5h-33.7V95h40.5c10.6,0,16.9,7.6,16.9,16.9
				s-6.3,17-16.9,17H722.4z"/>
			<path class="st3" d="M827.1,128.9c-11.1,0-16.7-5.7-16.7-17V22.7C810.4,12.1,818,6,827.1,6c9,0,16.9,6.1,16.9,16.7V95h17.9
				c10.4,0,16,7.6,16,16.9s-5.6,17-16,17H827.1z"/>
		</g>
		<g>
			<path class="st3" d="M341.7,242.8l-18-23.5v75.3c0,15.8-11.2,24.2-24,24.2c-13.2,0-24.5-8.2-24.5-24.2V166.8
				c0-16.2,12.2-25.8,25.5-25.8c8.8,0,18,4.2,24.2,12.2l34.5,44.2l34.8-44.2c6.2-8,15.2-12.2,24-12.2c13.2,0,25.8,9.5,25.8,25.8
				v127.8c0,16-11.2,24.2-24.5,24.2c-13,0-24-8.2-24-24.2v-75.3l-17.8,23.5c-5.8,7.8-11.5,10.2-18.2,10.2
				C352.9,253.1,346.9,249.6,341.7,242.8z"/>
			<path class="st3" d="M566.2,283.8h-52l-7.7,19.2c-4.8,10.8-13,15.8-21.2,15.8c-13,0-26.2-9-26.2-23c0-4.2,0.5-7.5,1.8-9.8
				l59.5-130.5c4-8.8,9.2-14.5,22.5-14.5c12.8,0,18.2,5.8,22,14.8l54.2,130.3c1.2,2.5,1.8,5.8,1.8,9.8c0,13.2-13,23-26,23
				c-10.8,0-17.8-5.2-21.5-15.8L566.2,283.8z M529.4,245.6h23.5l-10.8-31.8L529.4,245.6z"/>
			<path class="st3" d="M719.7,294.6c0,16-11.2,24.2-24.5,24.2c-13,0-24-8.2-24-24.2V190.8h-17c-15.2,0-24.2-11.2-24.2-24.5
				s9-24.5,24.2-24.5h82c15.2,0,24.5,11.2,24.5,24.5s-9.2,24.5-24.5,24.5h-16.5V294.6z"/>
			<path class="st3" d="M799.4,317.8c-16,0-24-8.2-24-24.5v-127c0-16.2,8-24.5,24-24.5h82.5c15.2,0,24.2,11.2,24.2,24.5
				s-9,24.5-24.2,24.5h-58.2v16.8h48.5c14,0,22.2,10.2,22.2,22.2s-8.2,22.2-22.2,22.2h-48.5v17h58.2c15.2,0,24.2,11,24.2,24.2
				s-9,24.5-24.2,24.5H799.4z"/>
		</g>
	</g>
</g>
</svg>
